<?xml version="1.0" encoding="utf-8"?>
<!-- Generator: Adobe Illustrator 15.0.0, SVG Export Plug-In . SVG Version: 6.00 Build 0)  -->
<!DOCTYPE svg PUBLIC "-//W3C//DTD SVG 1.1//EN" "http://www.w3.org/Graphics/SVG/1.1/DTD/svg11.dtd">
<svg version="1.1" id="Capa_1" xmlns="http://www.w3.org/2000/svg" xmlns:xlink="http://www.w3.org/1999/xlink" x="0px" y="0px"
	 width="68.417px" height="77.289px" viewBox="0 0 68.417 77.289" enable-background="new 0 0 68.417 77.289" xml:space="preserve">
<g>
	<g>
		<g>
			<polygon fill="#FFCD04" points="66.768,55.46 33.974,75.641 1.649,55.18 1.649,20.987 33.974,1.649 66.768,20.987 			"/>
		</g>
		<g>
			<path fill="#CFAE2B" d="M33.974,77.289c-0.306,0-0.613-0.086-0.882-0.256L0.767,56.573C0.29,56.271,0,55.745,0,55.18V20.987
				c0-0.58,0.304-1.118,0.803-1.416L33.127,0.233c0.519-0.308,1.166-0.312,1.685-0.004l32.793,19.339
				c0.502,0.296,0.812,0.836,0.812,1.42V55.46c0,0.573-0.296,1.104-0.784,1.404L34.838,77.045
				C34.574,77.206,34.274,77.289,33.974,77.289z M3.298,54.272l30.689,19.424l31.132-19.157v-32.61L33.981,3.566L3.298,21.922
				V54.272z"/>
		</g>
	</g>
	<path d="M6.302,42.88c0,6.01,4.873,10.88,10.879,10.88c5.604,0,10.217-4.233,10.813-9.678h3.773c1.119,0,2.178-0.512,3.06-1.479
		l11.563-12.793l0.956,3.092c-3.848,1.673-6.542,5.514-6.542,9.978c0,6.01,4.871,10.88,10.881,10.88
		c6.009,0,10.878-4.87,10.878-10.88c0-6.007-4.869-10.877-10.878-10.877c-0.702,0-1.386,0.068-2.047,0.195l-2.89-9.341
		c-0.45-1.331-1.288-3.816-4.971-3.816h-2.926c-0.664,0-1.2,0.541-1.2,1.202c0,0.664,0.536,1.198,1.2,1.198h2.926
		c1.961,0,2.269,0.92,2.696,2.183l0.066,0.194l0.479,1.551H26.363l-0.874-2.059c1.588-0.317,4.149-0.834,4.389-0.917
		c0.35-0.127,0.551-0.777,0.101-1.077H19.805v2.152l3.172,0.064l1.171,2.758l-3.248,6.365c-1.16-0.422-2.412-0.652-3.719-0.652
		C11.174,32.003,6.302,36.873,6.302,42.88z M48.061,35.217l2.477,8.019c0.16,0.515,0.631,0.847,1.146,0.847
		c0.116,0,0.235-0.019,0.354-0.052c0.632-0.197,0.99-0.871,0.791-1.504l-2.478-8.021c0.433-0.066,0.877-0.102,1.333-0.102
		c4.675,0,8.479,3.806,8.479,8.477c0,4.675-3.804,8.48-8.479,8.48c-4.676,0-8.479-3.806-8.479-8.48
		C43.205,39.505,45.192,36.577,48.061,35.217z M25.37,29.174l5.306,12.507h-2.682c-0.366-3.342-2.246-6.23-4.942-7.959L25.37,29.174
		z M25.577,41.682h-6.587l2.963-5.805C23.875,37.189,25.232,39.274,25.577,41.682z M33.05,40.989
		c-0.015,0.016-0.03,0.03-0.044,0.044l-5.628-13.265h17.623L33.05,40.989z M8.703,42.88c0-4.671,3.804-8.477,8.478-8.477
		c0.914,0,1.793,0.146,2.618,0.411l-3.837,7.523c-0.299,0.591-0.067,1.313,0.524,1.614c0.175,0.09,0.361,0.13,0.544,0.13h0.002l0,0
		h8.545c-0.586,4.11-4.127,7.278-8.396,7.278C12.506,51.36,8.703,47.555,8.703,42.88z"/>
</g>
</svg>
